<?xml version="1.0" standalone="no"?>
<!DOCTYPE svg PUBLIC "-//W3C//DTD SVG 20010904//EN"
 "http://www.w3.org/TR/2001/REC-SVG-20010904/DTD/svg10.dtd">
<svg version="1.0" xmlns="http://www.w3.org/2000/svg"
 width="320.000000pt" height="320.000000pt" viewBox="0 0 320.000000 320.000000"
 preserveAspectRatio="xMidYMid meet">
<metadata>
Created by potrace 1.11, written by Peter Selinger 2001-2013
</metadata>
<g transform="translate(0.000000,320.000000) scale(0.100000,-0.100000)"
fill="#000000" stroke="none">
<path d="M1922 3184 c-12 -8 -22 -22 -22 -31 0 -11 -6 -14 -22 -10 -81 21
-188 28 -341 25 -188 -5 -228 -14 -372 -84 -87 -42 -247 -161 -343 -256 -99
-98 -155 -214 -204 -423 -18 -78 -20 -119 -19 -305 l2 -215 -69 0 c-56 0 -79
-5 -127 -30 -94 -48 -131 -123 -142 -285 -7 -105 7 -178 52 -268 43 -85 92
-143 169 -198 34 -24 88 -76 122 -116 45 -54 73 -78 107 -92 l47 -20 36 35
c20 19 42 48 49 64 16 36 13 45 65 -155 22 -86 53 -197 69 -247 24 -78 27
-100 20 -144 -10 -62 4 -135 34 -181 25 -37 97 -78 139 -78 15 0 47 -8 70 -19
24 -10 72 -32 108 -47 36 -16 81 -41 100 -56 49 -37 99 -48 228 -48 132 0 166
11 232 74 32 32 61 48 102 60 48 14 70 28 131 89 41 39 82 87 91 105 28 54 30
119 7 191 -19 57 -20 71 -10 123 11 56 12 58 44 58 100 0 206 73 240 166 11
27 29 63 42 81 13 17 27 47 30 67 3 20 17 48 32 62 14 15 26 38 26 51 0 34 28
52 55 35 27 -17 41 -7 38 26 -4 66 24 86 86 62 23 -9 29 -6 51 28 36 55 59
178 51 282 -7 96 -26 179 -52 218 -38 59 -120 146 -151 158 -38 17 -116 18
-144 4 -18 -10 -19 -5 -19 187 0 109 -5 227 -11 263 -13 86 -70 253 -125 367
-24 51 -41 99 -38 108 7 17 -12 71 -34 98 -9 9 -29 17 -47 17 -21 0 -54 14
-92 40 -33 22 -85 49 -116 61 -31 12 -59 29 -62 38 -7 24 -62 81 -77 81 -8 0
-24 -7 -36 -16z m43 -57 c0 -24 -8 -55 -18 -70 -10 -15 -29 -60 -42 -100 -14
-39 -29 -73 -34 -75 -16 -5 -97 -123 -115 -167 -29 -67 -36 -116 -20 -122 13
-5 113 51 174 96 79 60 169 111 183 105 18 -6 173 74 201 105 15 17 15 19 1
25 -22 8 -9 26 20 26 43 0 48 -60 8 -81 -49 -25 -114 -71 -109 -76 3 -3 18 -1
33 5 15 6 47 13 71 15 35 4 41 3 32 -8 -6 -7 -27 -13 -47 -13 -19 0 -42 -6
-50 -14 -12 -13 -8 -13 35 -5 27 6 56 8 64 5 14 -6 77 -147 111 -248 40 -119
54 -282 58 -660 1 -60 8 -108 25 -165 18 -58 23 -90 18 -120 -7 -43 -103 -193
-152 -237 l-28 -25 -32 28 c-26 24 -31 33 -26 58 4 17 1 44 -5 61 -10 29 -8
35 22 71 24 29 37 37 52 32 19 -5 19 -4 4 13 -14 16 -15 24 -4 54 8 23 19 36
33 38 27 4 29 22 3 22 -16 0 -19 10 -23 78 -5 70 -31 162 -43 150 -3 -3 0 -18
6 -34 16 -40 18 -226 2 -231 -7 -2 -9 -12 -6 -21 4 -14 3 -14 -5 -3 -8 11 -13
8 -25 -15 -8 -16 -30 -42 -48 -59 l-33 -30 32 38 c58 68 66 93 69 211 2 95 0
115 -17 144 -25 42 -25 42 8 42 18 0 47 14 75 36 54 42 65 77 47 144 -14 53
-93 135 -139 145 -17 4 -44 17 -59 29 -45 38 -68 46 -129 46 -70 0 -149 -40
-182 -93 -11 -18 -47 -59 -80 -90 -33 -31 -54 -57 -47 -57 13 0 138 105 189
158 34 36 102 57 152 48 20 -4 53 -22 73 -40 20 -18 56 -38 79 -44 89 -26 131
-119 79 -179 l-25 -28 14 40 c13 39 10 102 -6 119 -4 5 -5 -9 -2 -30 6 -48
-18 -109 -49 -125 -22 -12 -22 -11 -5 8 25 28 22 52 -3 25 -15 -16 -32 -22
-63 -22 l-42 0 33 21 c17 12 32 22 32 23 0 1 -17 1 -37 -1 l-38 -3 33 17 c43
22 40 29 -8 25 -44 -4 -70 13 -70 48 0 32 -24 83 -51 105 l-23 20 22 -32 c12
-17 27 -53 32 -80 7 -40 6 -50 -7 -60 -25 -20 -43 -15 -43 10 0 12 -5 29 -11
37 -8 12 -9 11 -4 -6 10 -38 -16 -72 -89 -118 -121 -75 -186 -108 -186 -96 0
6 -5 8 -10 5 -6 -4 -7 -12 -3 -18 4 -8 1 -8 -9 1 -21 17 -31 73 -18 106 5 14
6 26 1 26 -22 0 -29 -96 -11 -131 9 -16 7 -19 -12 -21 -13 0 -35 -2 -50 -3
-24 -2 -27 2 -33 36 -5 28 -2 49 12 76 15 32 24 39 63 46 25 5 52 16 60 24 13
14 13 15 -5 8 -11 -4 -42 -10 -69 -14 -66 -8 -89 -39 -94 -124 -3 -49 -8 -66
-24 -76 -17 -11 -18 -10 -9 8 6 11 11 35 10 53 l-1 33 -16 -35 -17 -35 -5 59
-5 59 -13 -46 c-22 -74 -37 -76 -37 -3 0 84 -26 120 -100 141 -41 12 -76 35
-141 90 -96 83 -123 95 -240 102 -65 4 -87 2 -115 -12 -59 -31 -173 -125 -196
-163 -23 -38 -31 -92 -13 -92 6 0 10 12 10 28 0 33 30 81 62 98 31 18 33 17
34 -10 2 -35 63 -125 97 -142 l28 -15 -26 -21 c-15 -11 -38 -20 -52 -20 -36 0
-83 51 -99 108 -11 45 -13 46 -13 16 -1 -47 22 -95 60 -125 l34 -27 -33 0
c-43 0 -71 15 -82 46 -5 13 -15 24 -21 24 -6 0 1 -21 15 -47 32 -57 27 -68 -8
-16 -31 44 -35 35 -6 -12 21 -34 61 -56 105 -59 14 0 25 -2 25 -3 0 -10 -25
-53 -30 -53 -4 0 -13 -14 -20 -30 -20 -49 -7 -155 29 -236 23 -50 26 -62 11
-44 -11 14 -25 40 -31 58 -6 18 -13 31 -17 28 -8 -9 29 -87 61 -129 44 -57 93
-78 185 -78 87 0 164 23 223 67 18 14 52 34 74 44 53 23 131 102 146 147 7 23
9 64 6 112 -4 51 -3 69 3 54 13 -32 23 -28 15 5 -8 38 14 57 57 47 18 -3 52
-7 75 -8 59 -3 99 -35 95 -75 -5 -44 15 -49 23 -4 12 72 20 60 21 -31 0 -74 4
-100 21 -132 24 -45 92 -114 138 -140 17 -9 21 -13 10 -10 -11 4 -27 9 -35 12
-9 3 -7 -2 5 -11 28 -23 84 -36 128 -30 22 4 37 2 37 -5 0 -5 -21 -11 -47 -13
l-48 -3 60 -9 c53 -7 64 -13 97 -50 l37 -41 -42 -6 c-45 -6 -82 -42 -118 -112
-30 -58 -17 -54 24 6 21 30 49 59 63 66 24 11 23 7 -13 -36 -43 -51 -67 -92
-60 -99 2 -3 17 10 33 28 16 18 42 41 57 51 26 17 27 17 27 -2 0 -11 -21 -43
-46 -73 -59 -69 -76 -109 -78 -185 0 -35 -4 -63 -8 -63 -4 0 -35 27 -68 59
-42 41 -59 53 -54 38 8 -29 50 -74 96 -103 21 -13 44 -39 51 -57 17 -39 97
-114 131 -123 21 -5 26 -12 26 -37 l0 -32 -26 38 c-14 21 -28 36 -31 33 -4 -3
1 -14 9 -23 24 -29 56 -103 74 -173 17 -68 15 -136 -7 -184 -25 -54 -120 -70
-233 -41 -33 9 -61 13 -64 10 -3 -3 -1 -5 4 -5 6 0 19 -7 30 -15 18 -13 17
-14 -11 -6 -16 5 -39 12 -49 17 -33 13 -9 -13 44 -47 l50 -33 -36 -37 c-57
-58 -118 -86 -219 -100 -147 -19 -264 5 -346 71 -21 16 -44 30 -51 30 -7 1 1
9 18 18 17 9 46 30 65 46 19 15 28 25 20 21 -29 -16 -140 -52 -135 -44 2 4 40
29 84 55 44 26 78 49 76 51 -1 2 -25 -6 -52 -16 -227 -90 -238 -92 -304 -61
-75 35 -89 86 -65 235 9 60 25 119 40 149 15 28 19 44 11 37 -8 -7 -26 -34
-39 -61 l-24 -48 -37 134 c-21 74 -51 174 -67 221 -34 102 -35 114 -10 170 22
46 46 66 118 92 64 23 89 12 132 -61 17 -29 31 -50 31 -46 0 19 -43 102 -64
123 -47 47 -11 25 42 -25 66 -63 68 -42 3 28 -47 51 -50 52 -104 52 -35 0 -73
-8 -104 -22 -134 -60 -289 5 -348 146 -22 51 -19 134 5 176 31 53 47 92 53
130 6 34 6 34 -7 11 -13 -23 -14 -17 -21 70 -4 51 -5 200 -3 329 4 214 7 244
30 330 34 126 97 270 142 325 76 92 313 265 429 313 138 57 207 66 406 53 188
-12 261 -25 261 -47 0 -8 4 -14 10 -14 16 0 23 46 10 69 -13 25 -6 41 18 41
14 0 17 -9 17 -43z m64 -124 c-18 -20 -28 -33 -21 -29 6 4 12 2 12 -3 0 -6 -5
-11 -12 -11 -6 0 -23 -10 -36 -22 -22 -21 -24 -21 -14 -3 5 11 15 32 22 46 11
24 54 58 74 59 6 0 -6 -16 -25 -37z m36 7 c-3 -5 -16 -15 -28 -21 -21 -10 -21
-9 2 10 25 23 36 27 26 11z m65 -4 c0 -2 -19 -16 -42 -31 -51 -34 -176 -152
-190 -180 -6 -11 23 12 63 52 89 86 186 150 202 134 12 -12 -5 -29 -58 -58
-39 -21 -94 -63 -177 -135 -67 -58 -100 -78 -60 -35 12 13 19 26 16 30 -12 12
25 56 122 141 80 72 124 101 124 82z m54 -72 c-35 -15 -114 -83 -97 -84 6 0
25 11 41 25 17 14 47 32 68 41 32 14 39 14 52 1 12 -13 11 -16 -9 -22 -12 -4
-46 -22 -74 -41 -35 -22 -59 -31 -74 -27 -12 3 -32 -2 -46 -11 -14 -9 -30 -14
-35 -11 -5 3 -15 -3 -22 -13 -7 -10 -31 -34 -53 -52 -22 -19 2 10 54 63 90 91
193 163 214 150 5 -3 -3 -12 -19 -19z m-1051 -633 c18 -7 27 -22 36 -55 16
-63 14 -141 -3 -155 -8 -7 -52 -14 -97 -17 -46 -3 -88 -9 -95 -15 -34 -28
-144 85 -144 150 0 23 49 67 105 93 32 15 54 18 107 13 37 -3 78 -9 91 -14z
m184 -118 c29 -24 65 -49 78 -55 14 -6 25 -20 25 -30 0 -28 -25 -81 -48 -102
-21 -18 -22 -18 -89 19 -84 45 -90 52 -75 67 16 16 15 33 -1 20 -10 -9 -12 -4
-9 24 4 30 -5 83 -25 148 -4 15 4 12 42 -14 26 -18 72 -53 102 -77z m141 -90
c6 -10 13 -32 16 -49 9 -40 -29 -84 -74 -84 l-30 0 30 42 c19 26 30 53 30 75
0 36 14 44 28 16z m801 -108 c41 -31 64 -57 75 -86 9 -23 14 -44 11 -47 -3 -3
-5 -1 -5 4 0 5 -9 20 -20 34 -20 25 -20 25 0 -28 11 -29 19 -63 19 -75 -1 -20
-2 -20 -6 -2 -17 78 -49 138 -95 180 -28 25 -55 45 -62 45 -9 0 12 19 21 20 2
0 29 -20 62 -45z m-1244 9 c-50 -34 -71 -59 -101 -120 -15 -33 -24 -70 -25
-105 -3 -110 26 -174 100 -220 51 -33 46 -38 -10 -11 -20 9 -43 27 -51 40 -14
23 -15 23 -14 -12 1 -30 5 -36 22 -36 39 0 84 -30 84 -55 0 -18 5 -23 24 -21
13 0 22 4 20 8 -8 12 19 21 75 25 88 7 154 37 206 95 25 27 45 58 46 67 1 9 2
23 3 31 2 8 3 26 4 40 2 19 4 22 11 11 7 -11 12 -6 19 20 16 53 14 1 -2 -57
-21 -81 -54 -128 -119 -170 -105 -69 -124 -76 -208 -80 -158 -8 -230 58 -303
280 -9 26 4 92 15 75 6 -10 9 -9 14 6 18 56 40 97 57 106 22 12 23 6 2 -26
-10 -16 -17 -53 -19 -107 l-4 -83 9 70 c13 115 53 187 124 230 54 33 69 32 21
-1z m246 -23 c54 -34 84 -67 98 -104 14 -37 14 -110 0 -158 -15 -48 -67 -112
-86 -105 -8 3 -11 2 -8 -4 3 -5 -3 -14 -14 -19 -26 -14 -40 -14 -21 0 12 8 10
9 -10 5 -14 -3 -32 -6 -40 -6 -13 0 -13 -1 0 -10 12 -8 9 -10 -10 -6 -14 3
-45 7 -70 11 -56 8 -104 37 -135 83 -14 20 -25 31 -25 25 0 -22 64 -86 105
-104 22 -10 54 -19 70 -20 23 -1 25 -3 8 -6 -34 -7 -99 15 -134 44 -67 57 -92
181 -47 239 12 16 15 23 6 16 -31 -25 -8 25 33 72 46 52 99 74 180 75 44 1 64
-4 100 -28z m1503 -115 c92 -96 126 -187 126 -337 0 -120 -39 -255 -70 -243
-59 24 -103 0 -104 -58 -1 -35 -2 -36 -33 -31 -38 6 -63 -10 -63 -41 0 -12
-19 -43 -43 -69 l-43 -46 -18 43 c-10 24 -28 56 -40 71 l-23 29 41 20 c23 12
50 36 61 55 28 48 83 104 94 96 12 -7 47 58 56 106 3 19 1 48 -5 64 -13 34
-58 85 -76 85 -16 0 -25 53 -11 63 17 11 77 -2 108 -24 42 -30 61 -81 57 -155
-3 -69 7 -86 18 -28 25 134 -50 264 -152 264 l-28 0 22 22 c20 20 26 21 64 11
l43 -11 -24 19 c-30 24 -58 24 -99 -1 -48 -29 -62 -15 -62 65 0 73 12 83 98
84 52 1 55 -1 106 -53z m-2198 -41 c30 -74 7 -132 -45 -112 -15 5 -39 7 -54 3
-29 -7 -81 -68 -75 -87 2 -7 14 4 26 24 26 44 58 55 103 32 l33 -17 -31 -13
c-55 -23 -88 -86 -65 -123 6 -8 9 -2 9 17 0 41 27 79 66 89 39 11 72 -6 40
-21 -33 -15 -66 -75 -70 -130 -4 -53 16 -132 33 -132 18 0 64 -43 64 -59 0
-47 54 -106 96 -106 12 0 42 -8 66 -19 40 -17 43 -21 46 -60 4 -60 -28 -128
-65 -136 -15 -4 -33 -8 -40 -10 -7 -2 -34 22 -60 53 -59 70 -75 84 -140 127
-83 56 -156 159 -187 264 -18 61 -21 192 -6 261 23 104 60 148 143 175 75 23
96 20 113 -20z m890 -118 c-3 -18 -13 -42 -21 -53 -12 -17 -12 -14 0 21 8 22
14 49 15 59 0 11 3 17 6 13 4 -3 4 -21 0 -40z m881 6 c-3 -10 -5 -4 -5 12 0
17 2 24 5 18 2 -7 2 -21 0 -30z m-503 -83 c40 -60 89 -91 184 -116 6 -2 12 -7
12 -13 0 -12 -43 -22 -50 -12 -3 5 -23 18 -45 29 -75 38 -155 146 -154 207 0
12 6 4 13 -18 8 -21 25 -55 40 -77z m-484 -10 c-11 -16 -35 -39 -53 -51 -24
-17 -20 -10 18 29 58 59 64 63 35 22z m789 5 c16 -14 34 -40 39 -58 16 -52 23
-127 11 -127 -6 0 -6 -8 2 -22 11 -21 10 -22 -6 -7 -9 9 -23 34 -30 55 -12 32
-14 35 -15 14 0 -14 9 -44 20 -65 l20 -40 -21 22 c-23 22 -38 82 -39 151 0 36
-6 49 -31 73 l-31 29 25 0 c14 0 39 -11 56 -25z m160 -2 c-26 -35 -63 -73 -70
-73 -5 0 11 20 34 45 44 46 59 58 36 28z m-246 -31 c37 -38 39 -52 7 -52 -22
0 -94 77 -77 83 24 10 34 6 70 -31z m298 15 c-10 -9 -11 -8 -5 6 3 10 9 15 12
12 3 -3 0 -11 -7 -18z m-1232 -93 c2 -2 -6 -4 -18 -4 -12 0 -31 -5 -41 -10
-15 -8 -19 -7 -17 9 1 16 7 18 37 14 19 -3 37 -7 39 -9z m1157 -2 c40 -26 43
-88 8 -162 -15 -30 -30 -66 -35 -80 -7 -20 -8 -17 -5 15 4 34 3 37 -6 18 -11
-23 -32 -30 -42 -14 -3 5 10 28 29 51 36 44 48 103 24 127 -6 6 -8 20 -4 32 7
22 13 25 31 13z m-1326 -78 c0 -2 -9 0 -20 6 -11 6 -20 13 -20 16 0 2 9 0 20
-6 11 -6 20 -13 20 -16z m1600 -98 c0 -22 -8 -41 -25 -58 -24 -24 -91 -51
-105 -43 -8 5 110 134 123 135 4 0 7 -15 7 -34z m-179 -30 c8 -17 6 -16 -11 4
l-21 25 15 -31 c12 -25 13 -34 3 -42 -9 -8 -17 -3 -29 19 -14 24 -15 31 -3 43
8 7 11 17 7 22 -4 5 1 2 11 -6 10 -7 23 -23 28 -34z m-51 -37 c0 -11 -4 -17
-10 -14 -5 3 -10 13 -10 21 0 8 5 14 10 14 6 0 10 -9 10 -21z m-1659 -16 c13
-16 12 -17 -3 -4 -10 7 -18 15 -18 17 0 8 8 3 21 -13z m1716 -54 c35 -13 80
-55 99 -92 16 -30 35 -119 24 -112 -3 2 -12 -18 -19 -45 -46 -180 -242 -228
-378 -92 -20 19 -30 26 -25 15 24 -45 119 -100 187 -110 90 -12 184 53 219
151 8 23 15 32 15 21 1 -31 -33 -97 -65 -127 -60 -56 -145 -72 -237 -44 -67
20 -106 53 -133 110 -53 114 -14 255 85 306 59 30 173 40 228 19z"/>
<path d="M1875 2991 c-3 -16 -17 -43 -31 -62 -33 -45 -30 -49 10 -10 22 22 35
45 38 67 5 41 -8 45 -17 5z"/>
<path d="M1386 2945 c21 -19 42 -35 47 -35 6 0 -6 16 -26 35 -20 19 -41 35
-48 35 -6 0 6 -16 27 -35z"/>
<path d="M1274 2956 c-65 -38 -125 -90 -129 -114 -3 -15 -11 -53 -18 -85 -19
-78 -2 -105 80 -135 77 -28 95 -28 132 3 25 22 29 31 24 60 -5 32 -3 35 19 35
13 0 45 13 70 29 37 23 50 39 59 71 15 48 9 55 -52 65 -21 4 -45 16 -55 27
-37 40 -100 62 -130 44z m87 -84 c39 -34 33 -66 -14 -88 l-32 -15 37 4 c21 1
39 -2 42 -8 2 -5 9 2 16 18 14 30 37 36 46 12 9 -22 -35 -54 -73 -55 -33 0
-61 -30 -47 -51 4 -7 -1 -10 -12 -7 -25 5 -30 39 -8 55 17 12 17 13 -4 13 -26
0 -55 40 -50 72 2 15 16 29 38 40 22 11 28 17 17 18 -10 0 -15 5 -12 10 10 16
23 12 56 -18z m-118 -46 c-3 -13 3 -38 12 -55 l16 -32 -38 3 c-35 3 -38 6 -41
36 -2 22 3 41 14 53 24 27 42 24 37 -5z m244 -2 c10 -27 -11 -33 -30 -8 -17
23 -17 24 3 24 11 0 23 -7 27 -16z m-302 -104 c3 -5 15 -10 26 -10 10 0 19 5
19 10 0 18 18 10 23 -10 6 -25 -31 -37 -62 -21 -17 10 -20 9 -15 -4 8 -21 50
-30 79 -17 14 7 26 7 32 1 6 -6 20 -11 32 -12 l22 -1 -23 -18 c-27 -21 -57
-23 -63 -5 -3 6 -21 12 -41 13 -47 1 -81 33 -65 63 13 23 26 27 36 11z"/>
<path d="M1155 2907 c-30 -17 -41 -30 -43 -51 -2 -16 2 -34 9 -40 9 -8 10 -4
6 22 -6 29 -3 34 33 57 22 14 40 27 40 30 0 7 -1 7 -45 -18z"/>
<path d="M1513 2882 c10 -10 17 -25 17 -32 0 -11 3 -11 12 -2 9 9 7 16 -7 32
-10 11 -23 20 -28 20 -6 0 -3 -8 6 -18z"/>
<path d="M1780 2822 c-19 -31 -40 -64 -48 -73 -17 -21 -43 -119 -32 -119 5 0
16 25 24 55 9 30 35 84 58 120 22 36 39 68 36 70 -2 2 -19 -21 -38 -53z"/>
<path d="M1522 2774 c-7 -13 -20 -27 -29 -31 -10 -4 -29 -15 -42 -25 -13 -10
-34 -18 -47 -18 -21 0 -24 -5 -24 -33 0 -20 -7 -40 -17 -49 -29 -24 -80 -40
-105 -33 -22 6 -22 6 -4 -9 25 -20 25 -20 78 3 54 23 72 44 64 75 -5 19 -1 25
17 30 60 16 152 95 128 110 -4 3 -13 -6 -19 -20z"/>
<path d="M2017 2730 c-26 -16 -47 -32 -47 -34 0 -7 30 4 56 21 12 8 32 11 45
8 14 -3 32 0 44 9 20 15 20 15 -2 16 -12 0 -27 2 -35 5 -7 3 -35 -8 -61 -25z"/>
<path d="M884 2676 c-51 -28 -57 -38 -51 -88 5 -36 16 -60 43 -93 20 -25 42
-45 49 -45 7 0 18 -7 25 -15 19 -23 59 -19 70 8 l9 22 0 -23 c1 -28 -43 -52
-61 -34 -7 7 -17 12 -22 12 -6 -1 -1 -9 11 -19 29 -24 71 -16 86 16 9 20 7 27
-15 51 -33 35 -43 66 -39 124 2 39 -1 51 -23 73 -27 27 -49 30 -82 11z m70
-101 c14 -38 22 -73 19 -77 -3 -5 3 -19 14 -31 17 -21 17 -21 0 -7 -21 15
-101 169 -93 177 2 3 12 -9 21 -26 8 -17 18 -31 21 -31 2 0 0 9 -6 19 -10 19
-14 59 -6 50 3 -2 16 -35 30 -74z m-49 -1 c30 -67 32 -84 4 -31 -11 21 -24 35
-29 32 -6 -4 -10 7 -10 24 0 17 2 31 5 31 3 0 16 -25 30 -56z m-20 -44 c2 0 2
8 -2 18 -10 28 3 10 27 -38 l23 -45 -42 40 c-22 22 -41 49 -41 60 1 17 3 16
16 -7 8 -16 17 -28 19 -28z m75 -62 c15 -21 17 -28 6 -19 -16 13 -41 51 -33
51 2 0 14 -15 27 -32z"/>
<path d="M950 2535 c0 -5 5 -17 10 -25 5 -8 10 -10 10 -5 0 6 -5 17 -10 25 -5
8 -10 11 -10 5z"/>
<path d="M988 2667 c6 -7 13 -40 15 -72 l3 -60 2 66 c2 54 -1 68 -14 73 -13 5
-14 3 -6 -7z"/>
<path d="M1102 2660 c2 -14 17 -33 37 -47 39 -26 59 -30 41 -8 -7 8 -19 15
-26 15 -8 0 -23 15 -35 33 -18 29 -20 30 -17 7z"/>
<path d="M805 2638 c-3 -13 -1 -41 4 -63 l11 -40 -5 49 c-3 29 0 55 6 62 8 10
8 14 0 14 -6 0 -13 -10 -16 -22z"/>
<path d="M1781 2583 c-14 -3 -36 -12 -50 -21 -18 -12 -26 -13 -29 -4 -5 16
-22 16 -22 0 1 -30 16 -39 43 -27 15 7 27 16 27 21 0 4 6 8 13 8 7 0 22 7 33
15 10 8 17 14 14 13 -3 0 -16 -3 -29 -5z"/>
<path d="M1086 2552 c5 -4 24 -21 43 -37 l34 -30 -21 31 c-12 17 -31 34 -43
37 -12 3 -18 3 -13 -1z"/>
<path d="M1050 2521 c-8 -16 -7 -26 6 -46 9 -14 19 -25 23 -25 4 0 16 -7 27
-16 18 -14 18 -15 -6 -9 -19 5 -22 4 -10 -4 17 -12 57 -14 63 -3 9 14 -5 57
-26 83 -31 37 -63 45 -77 20z m62 -50 l23 -26 -29 25 c-24 21 -28 22 -22 6 5
-16 4 -17 -9 -6 -19 16 -19 27 0 27 8 0 25 -12 37 -26z"/>
<path d="M856 2477 c16 -20 33 -37 37 -37 12 0 -18 40 -44 58 -19 13 -18 10 7
-21z"/>
<path d="M2075 2392 c-46 -16 -115 -57 -115 -68 0 -2 26 10 58 28 52 30 64 33
145 33 86 0 89 -1 116 -31 15 -17 38 -33 49 -36 27 -7 29 8 3 17 -11 3 -22 13
-25 21 -9 23 -86 54 -136 53 -25 0 -68 -7 -95 -17z"/>
<path d="M864 2337 c-24 -14 -101 -77 -150 -123 -19 -18 -34 -40 -34 -50 0
-14 5 -10 19 13 11 17 35 42 54 55 32 22 143 118 136 118 -2 -1 -13 -6 -25
-13z"/>
<path d="M1306 2234 c49 -47 97 -74 131 -74 9 0 28 -10 41 -22 l25 -23 -12 22
c-8 15 -30 28 -66 38 -36 11 -71 31 -104 61 -65 58 -78 57 -15 -2z"/>
<path d="M1835 2204 c-30 -36 -74 -52 -192 -71 -18 -3 -33 -9 -33 -13 0 -4
-10 -10 -22 -13 -12 -4 -19 -9 -16 -12 8 -9 59 6 53 15 -3 4 5 8 18 8 21 1
135 25 161 35 16 6 81 87 69 87 -4 0 -22 -17 -38 -36z"/>
<path d="M1540 2103 c0 -4 5 -15 10 -23 8 -13 10 -13 10 2 0 9 -4 20 -10 23
-5 3 -10 3 -10 -2z"/>
<path d="M1551 1623 c-26 -24 -80 -133 -66 -133 3 0 18 27 35 59 30 61 61 91
92 91 9 0 37 -25 62 -56 55 -67 61 -59 8 11 -47 63 -84 71 -131 28z"/>
<path d="M1573 1593 c-15 -6 -118 -214 -132 -268 -17 -62 -14 -129 7 -155 27
-33 103 -39 131 -11 11 11 21 32 21 46 0 29 27 35 37 8 13 -38 36 -53 79 -53
34 0 47 5 63 26 26 33 26 40 -2 150 -29 108 -55 162 -109 220 -38 41 -62 51
-95 37z m65 -306 c3 -12 -4 -17 -22 -17 -27 0 -37 24 -13 33 19 8 32 2 35 -16z"/>
<path d="M1354 1515 c-16 -14 -70 -45 -120 -70 -49 -25 -75 -43 -59 -39 48 11
178 79 204 108 31 33 16 33 -25 1z"/>
<path d="M1833 1242 c14 -39 5 -57 -44 -90 -25 -18 -45 -23 -76 -20 -53 4 -47
-5 18 -26 51 -17 52 -17 75 5 25 23 54 78 54 102 0 8 -9 25 -20 38 l-19 24 12
-33z"/>
<path d="M1377 1206 c-25 -64 64 -169 109 -127 5 5 26 14 47 21 20 6 37 16 37
21 0 5 -12 4 -27 -2 -29 -11 -130 -2 -139 12 -3 5 -8 28 -12 51 -6 33 -9 39
-15 24z"/>
<path d="M2006 1093 c-6 -14 -5 -15 5 -6 7 7 10 15 7 18 -3 3 -9 -2 -12 -12z"/>
<path d="M1250 1075 c0 -5 5 -17 10 -25 5 -8 10 -10 10 -5 0 6 -5 17 -10 25
-5 8 -10 11 -10 5z"/>
<path d="M1334 996 c-16 -17 -63 -51 -102 -76 -69 -42 -122 -100 -122 -131 1
-7 7 -3 14 11 19 34 81 82 136 107 47 20 110 83 110 108 0 18 2 19 -36 -19z"/>
<path d="M1305 905 c-34 -16 -53 -31 -75 -59 -8 -11 9 -2 38 19 48 34 57 37
104 33 47 -5 49 -4 27 8 -31 17 -56 17 -94 -1z"/>
<path d="M1491 898 c-1 -4 3 -18 9 -32 9 -24 8 -25 -17 -15 -14 5 -58 12 -98
16 -64 5 -78 3 -108 -16 -109 -67 -207 -254 -207 -394 0 -76 19 -110 75 -137
54 -26 76 -24 190 22 75 29 90 31 235 35 165 5 361 -14 443 -42 66 -23 91 -19
125 19 39 44 56 97 49 153 -8 72 -77 199 -149 274 -86 89 -124 100 -260 73
-23 -5 -27 -2 -31 23 l-4 28 -8 -32 c-6 -29 -12 -33 -52 -39 -63 -9 -144 0
-157 19 -6 8 -16 24 -23 34 -6 10 -12 15 -12 11z m-27 -107 c3 -4 -8 -8 -24
-7 -17 1 -30 4 -30 9 0 10 48 9 54 -2z m357 -7 c12 -15 11 -16 -8 -10 -12 4
-33 2 -45 -4 l-23 -11 24 20 c28 25 35 26 52 5z m-476 -1 c-11 -3 -26 -10 -32
-15 -9 -7 -13 -7 -13 0 0 13 18 21 45 20 l20 0 -20 -5z m40 -44 c5 -7 16 -2
31 12 23 22 24 22 44 4 11 -10 20 -26 20 -37 0 -25 13 -23 25 4 27 58 70 48
97 -23 l17 -44 0 41 c1 45 14 62 51 66 34 4 59 -45 66 -128 5 -67 4 -68 -10
-39 -10 19 -15 23 -13 11 2 -15 -7 -22 -37 -28 -21 -5 -41 -6 -44 -3 -3 3 -8
22 -12 42 l-8 38 -1 -49 c-1 -39 -4 -47 -17 -42 -9 3 -29 6 -45 6 -23 0 -29 4
-30 23 0 19 -2 18 -12 -8 -11 -29 -12 -27 -17 35 -6 67 -11 62 -25 -24 -5 -29
-9 -36 -16 -25 -6 10 -9 10 -9 2 0 -7 -9 -13 -20 -13 -19 0 -33 33 -44 100 -3
22 -9 -32 -9 -83 0 -13 -3 -15 -13 -6 -11 9 -14 8 -14 -2 0 -26 -22 8 -40 63
l-19 53 0 -47 c-1 -26 -6 -50 -11 -53 -6 -4 -10 -3 -9 2 5 19 -15 43 -36 43
-20 0 -48 -21 -42 -31 1 -2 -4 2 -10 10 -32 37 3 133 53 145 32 8 42 2 53 -37
l8 -32 12 30 c21 53 62 64 86 24z m439 -1 c16 -23 21 -109 8 -138 -9 -19 -41
-22 -59 -5 -7 8 -17 35 -22 62 -8 40 -6 52 11 75 23 34 42 35 62 6z m96 12
c29 -16 40 -60 24 -105 -7 -21 -10 -43 -7 -48 3 -6 1 -7 -5 -3 -8 4 -16 -3
-22 -20 -11 -27 -11 -27 -29 -7 -12 12 -21 43 -26 82 -6 57 -5 65 16 87 26 28
24 27 49 14z m135 -36 c33 -45 46 -84 25 -84 -5 0 -13 8 -19 17 -8 14 -12 15
-25 4 -9 -7 -16 -21 -17 -30 0 -10 -2 -11 -6 -3 -2 6 -9 12 -15 12 -6 0 -7 -8
-4 -17 4 -10 3 -14 -1 -9 -4 4 -13 31 -20 59 -10 43 -9 56 3 75 21 33 39 27
79 -24z m-793 -154 c8 0 19 5 25 11 8 8 14 1 22 -27 14 -50 14 -56 -2 -78 -11
-15 -18 -16 -34 -8 -22 12 -53 79 -53 115 1 20 2 21 14 5 7 -10 20 -18 28 -18z
m718 5 c0 -13 -7 -40 -16 -58 -13 -28 -21 -33 -43 -30 -23 3 -23 2 -6 -6 17
-8 17 -10 3 -10 -19 -1 -38 27 -31 46 7 20 67 80 81 82 6 0 12 -10 12 -24z
m-115 -65 c-8 -15 -12 -30 -9 -33 3 -3 0 -8 -7 -13 -8 -5 -10 -3 -4 5 5 9 0
12 -16 9 -22 -3 -24 1 -27 44 -3 42 -1 47 20 50 14 3 30 -3 40 -15 16 -17 16
-22 3 -47z m-79 45 c3 -8 1 -30 -6 -50 -12 -37 -38 -47 -59 -21 -15 18 -3 74
18 79 31 9 42 7 47 -8z m-378 -45 c3 -41 1 -45 -21 -46 -17 -1 -29 7 -41 26
-20 35 -21 61 -2 54 8 -3 17 0 21 6 4 6 14 10 23 8 12 -2 18 -16 20 -48z m110
4 c5 -58 -42 -85 -72 -42 -24 34 -21 76 7 80 35 6 63 -11 65 -38z m96 12 c7
-29 -9 -76 -26 -76 -20 0 -58 42 -58 66 0 22 14 31 56 33 15 1 24 -6 28 -23z
m86 -15 c0 -78 -54 -76 -67 2 -6 37 -6 37 31 37 35 0 36 -1 36 -39z m135 -71
c13 -6 15 -9 5 -9 -8 0 -22 4 -30 9 -18 12 -2 12 25 0z"/>
<path d="M1600 885 c0 -11 5 -27 10 -35 8 -12 10 -12 10 5 0 11 -5 27 -10 35
-8 12 -10 12 -10 -5z"/>
<path d="M1850 889 c-11 -7 -1 -8 33 -3 36 5 53 2 75 -11 l27 -18 -19 21 c-21
24 -88 30 -116 11z"/>
<path d="M1593 343 c9 -2 23 -2 30 0 6 3 -1 5 -18 5 -16 0 -22 -2 -12 -5z"/>
<path d="M2015 2820 c-3 -5 -2 -10 4 -10 5 0 13 5 16 10 3 6 2 10 -4 10 -5 0
-13 -4 -16 -10z"/>
<path d="M2191 2017 c2 -1 13 -9 24 -17 19 -14 19 -14 6 3 -7 9 -18 17 -24 17
-6 0 -8 -1 -6 -3z"/>
<path d="M871 1674 c0 -11 3 -14 6 -6 3 7 2 16 -1 19 -3 4 -6 -2 -5 -13z"/>
<path d="M846 1640 c3 -14 10 -32 15 -40 7 -12 8 -11 9 6 0 11 -7 29 -16 40
-14 18 -15 18 -8 -6z"/>
<path d="M932 1780 c0 -14 2 -19 5 -12 2 6 2 18 0 25 -3 6 -5 1 -5 -13z"/>
<path d="M2705 1620 c10 -11 20 -20 23 -20 3 0 -3 9 -13 20 -10 11 -20 20 -23
20 -3 0 3 -9 13 -20z"/>
<path d="M2605 1189 c-4 -6 -5 -12 -2 -15 2 -3 7 2 10 11 7 17 1 20 -8 4z"/>
<path d="M402 1525 c0 -16 2 -22 5 -12 2 9 2 23 0 30 -3 6 -5 -1 -5 -18z"/>
</g>
</svg>
